<svg width="15" height="15" viewBox="0 0 15 15" fill="none" xmlns="http://www.w3.org/2000/svg">
<path fill-rule="evenodd" clip-rule="evenodd" d="M14.6999 14.4545C14.2029 15.057 13.2627 15.1791 12.5999 14.7272L3.6 8.5909C3.22229 8.33337 3 7.92921 3 7.5C3 7.07079 3.22229 6.66663 3.6 6.4091L12.5999 0.272805C13.2627 -0.17906 14.2029 -0.0569572 14.6999 0.545529C15.197 1.14801 15.0627 2.00273 14.3999 2.4546L6.99997 7.5L14.3999 12.5454C15.0627 12.9973 15.197 13.852 14.6999 14.4545Z" fill="#290931"/>
<path fill-rule="evenodd" clip-rule="evenodd" d="M1.5 15C0.671573 15 0 14.3895 0 13.6364V1.36364C0 0.61052 0.671573 -1.19209e-07 1.5 -1.19209e-07C2.32843 -1.19209e-07 3 0.61052 3 1.36364V13.6364C3 14.3895 2.32843 15 1.5 15Z" fill="#290931"/>
</svg>
