<svg width="15" height="15" viewBox="0 0 15 15" fill="none" xmlns="http://www.w3.org/2000/svg">
<path fill-rule="evenodd" clip-rule="evenodd" d="M0.300086 0.545529C0.797139 -0.056957 1.73733 -0.17906 2.40007 0.272805L11.4 6.4091C11.7777 6.66663 12 7.07079 12 7.5C12 7.92921 11.7777 8.33337 11.4 8.5909L2.40007 14.7272C1.73733 15.1791 0.797139 15.057 0.300086 14.4545C-0.196967 13.852 -0.0626529 12.9973 0.600084 12.5454L8.00003 7.5L0.600084 2.4546C-0.0626529 2.00273 -0.196967 1.14801 0.300086 0.545529Z" fill="#290931"/>
<path fill-rule="evenodd" clip-rule="evenodd" d="M13.5 0C14.3284 0 15 0.610521 15 1.36364V13.6364C15 14.3895 14.3284 15 13.5 15C12.6716 15 12 14.3895 12 13.6364V1.36364C12 0.610521 12.6716 0 13.5 0Z" fill="#290931"/>
</svg>
