<svg width="38" height="39" viewBox="0 0 38 39" fill="none" xmlns="http://www.w3.org/2000/svg">
    <path fill-rule="evenodd" clip-rule="evenodd"
        d="M34.8332 13.0685C34.8332 18.1598 30.706 22.287 25.6147 22.287C20.5235 22.287 16.3962 18.1598 16.3962 13.0685C16.3962 7.97729 20.5235 3.85002 25.6147 3.85002C30.706 3.85002 34.8332 7.97729 34.8332 13.0685ZM37.9999 13.0685C37.9999 19.9087 32.4549 25.4537 25.6147 25.4537C22.7654 25.4537 20.1408 24.4915 18.0481 22.8744L2.73808 38.1844C2.11975 38.8027 1.11723 38.8027 0.498904 38.1844C-0.119426 37.5661 -0.119426 36.5636 0.498904 35.9452L15.809 20.6352C14.1918 18.5425 13.2295 15.9179 13.2295 13.0685C13.2295 6.22838 18.7746 0.68335 25.6147 0.68335C32.4549 0.68335 37.9999 6.22838 37.9999 13.0685Z"
        fill="black" />
</svg>